<svg width="984" height="173" viewBox="0 0 984 173" fill="none" xmlns="http://www.w3.org/2000/svg">
<path d="M21.3046 147V40.3235H65.9064C73.3656 40.3235 79.803 41.7029 85.2185 44.4618C91.4515 47.6294 96.4073 52.1764 100.086 58.1029C103.764 63.9272 105.604 70.3646 105.604 77.415C105.604 84.4655 103.764 90.9539 100.086 96.8804C96.5095 102.807 91.6048 107.354 85.3718 110.522C80.0584 113.28 73.5699 114.66 65.9064 114.66H49.1999V147H21.3046Z" fill="#f58e4b"/>
<path d="M193.31 43.8487C199.441 46.7098 204.244 50.9503 207.718 56.5702C211.294 62.1901 213.082 68.4231 213.082 75.2692C213.082 83.2393 210.63 90.392 205.725 96.7271C200.923 102.96 194.741 107.098 187.179 109.142L214.308 147H207.564L181.355 110.215L176.451 110.368H137.98V147H132.309V40.3235H172.925C177.421 40.3235 181.253 40.6301 184.421 41.2431C187.69 41.754 190.654 42.6226 193.31 43.8487ZM177.983 104.697C183.297 104.697 188.201 103.369 192.697 100.712C197.193 98.0555 200.769 94.4792 203.426 89.9832C206.083 85.4873 207.411 80.5826 207.411 75.2692C207.411 69.3428 205.827 63.9783 202.66 59.1758C199.594 54.3733 195.303 50.797 189.785 48.4469C185.8 46.812 180.18 45.9945 172.925 45.9945H137.98V104.697H177.983ZM283.623 38.0245C291.593 38.0245 298.95 40.017 305.694 44.002C312.438 47.8849 317.751 53.1983 321.634 59.9422C325.619 66.6861 327.611 74.0431 327.611 82.0131V105.31C327.611 113.28 325.619 120.637 321.634 127.381C317.751 134.125 312.438 139.49 305.694 143.475C298.95 147.358 291.593 149.299 283.623 149.299C275.653 149.299 268.296 147.358 261.552 143.475C254.808 139.49 249.443 134.125 245.458 127.381C241.575 120.637 239.634 113.28 239.634 105.31V82.0131C239.634 74.0431 241.575 66.6861 245.458 59.9422C249.443 53.1983 254.808 47.8849 261.552 44.002C268.296 40.017 275.653 38.0245 283.623 38.0245ZM245.305 105.31C245.305 112.259 246.991 118.696 250.363 124.622C253.837 130.447 258.486 135.096 264.311 138.57C270.237 141.942 276.674 143.628 283.623 143.628C290.571 143.628 296.957 141.942 302.782 138.57C308.708 135.096 313.357 130.447 316.729 124.622C320.203 118.696 321.94 112.259 321.94 105.31V82.0131C321.94 75.0649 320.203 68.6786 316.729 62.8543C313.357 56.9278 308.708 52.2786 302.782 48.9067C296.957 45.4325 290.571 43.6955 283.623 43.6955C276.674 43.6955 270.237 45.4325 264.311 48.9067C258.486 52.2786 253.837 56.9278 250.363 62.8543C246.991 68.6786 245.305 75.0649 245.305 82.0131V105.31ZM395.24 149.299C387.985 149.299 381.241 147.664 375.008 144.394C368.775 141.022 363.666 136.424 359.681 130.6C355.696 124.776 353.346 118.338 352.63 111.288H358.301C359.017 117.317 361.111 122.834 364.586 127.841C368.06 132.746 372.453 136.629 377.767 139.49C383.182 142.249 389.007 143.628 395.24 143.628C402.086 143.628 408.37 141.942 414.092 138.57C419.814 135.198 424.361 130.549 427.733 124.622C431.105 118.696 432.791 112.054 432.791 104.697V45.9945H384.971V40.3235H438.309V104.697C438.309 113.076 436.367 120.688 432.484 127.535C428.704 134.278 423.493 139.592 416.851 143.475C410.311 147.358 403.108 149.299 395.24 149.299ZM545.174 40.3235V45.9945H513.294V141.329H545.174V147H476.049V141.329H507.776V45.9945H476.049V40.3235H545.174ZM588.586 40.3235H668.133V45.9945H594.257V90.7496H654.032V96.4206H594.257V147H588.586V40.3235ZM699.743 40.3235L737.601 97.3402L775.152 40.3235H781.896L740.36 103.318V147H734.689V103.318L692.999 40.3235H699.743Z" fill="#171f39"/>
<path d="M21.3046 147H19.3046V149H21.3046V147ZM21.3046 40.3235V38.3235H19.3046V40.3235H21.3046ZM85.2185 44.4618L84.3107 46.2439L84.3124 46.2448L85.2185 44.4618ZM100.086 58.1029L98.3865 59.1576L98.3906 59.1643L98.3948 59.1709L100.086 58.1029ZM100.086 96.8804L98.3865 95.8257L98.3799 95.8363L98.3734 95.8471L100.086 96.8804ZM85.3718 110.522L84.4657 108.739L84.4579 108.742L84.4502 108.747L85.3718 110.522ZM49.1999 114.66V112.66H47.1999V114.66H49.1999ZM49.1999 147V149H51.1999V147H49.1999ZM23.3046 147V40.3235H19.3046V147H23.3046ZM21.3046 42.3235H65.9064V38.3235H21.3046V42.3235ZM65.9064 42.3235C73.1206 42.3235 79.2331 43.6572 84.3107 46.2439L86.1264 42.6797C80.3728 39.7487 73.6106 38.3235 65.9064 38.3235V42.3235ZM84.3124 46.2448C90.2203 49.2471 94.9013 53.5426 98.3865 59.1576L101.785 57.0482C97.9132 50.8103 92.6828 46.0117 86.1246 42.6789L84.3124 46.2448ZM98.3948 59.1709C101.866 64.6677 103.604 70.7332 103.604 77.415H107.604C107.604 69.9959 105.662 63.1867 101.777 57.0349L98.3948 59.1709ZM103.604 77.415C103.604 84.097 101.866 90.2195 98.3865 95.8257L101.785 97.9351C105.662 91.6884 107.604 84.834 107.604 77.415H103.604ZM98.3734 95.8471C94.9925 101.45 90.3687 105.739 84.4657 108.739L86.2779 112.304C92.8409 108.969 98.0265 104.164 101.798 97.9137L98.3734 95.8471ZM84.4502 108.747C79.49 111.322 73.3365 112.66 65.9064 112.66V116.66C73.8034 116.66 80.6268 115.239 86.2934 112.296L84.4502 108.747ZM65.9064 112.66H49.1999V116.66H65.9064V112.66ZM47.1999 114.66V147H51.1999V114.66H47.1999ZM49.1999 145H21.3046V149H49.1999V145ZM193.31 43.8487L194.156 42.0364L194.148 42.0328L193.31 43.8487ZM207.718 56.5702L206.017 57.6219L206.023 57.633L206.03 57.644L207.718 56.5702ZM205.725 96.7271L204.144 95.5028L204.141 95.5065L205.725 96.7271ZM187.179 109.142L186.658 107.211L183.874 107.964L185.554 110.307L187.179 109.142ZM214.308 147V149H218.202L215.934 145.835L214.308 147ZM207.564 147L205.936 148.16L206.534 149H207.564V147ZM181.355 110.215L182.984 109.054L182.363 108.183L181.293 108.216L181.355 110.215ZM176.451 110.368V112.368H176.482L176.513 112.367L176.451 110.368ZM137.98 110.368V108.368H135.98V110.368H137.98ZM137.98 147V149H139.98V147H137.98ZM132.309 147H130.309V149H132.309V147ZM132.309 40.3235V38.3235H130.309V40.3235H132.309ZM184.421 41.2431L184.041 43.2067L184.076 43.2136L184.112 43.2192L184.421 41.2431ZM192.697 100.712L191.68 98.9903L191.68 98.9903L192.697 100.712ZM203.426 89.9832L201.704 88.9658L201.704 88.9658L203.426 89.9832ZM202.66 59.1758L200.974 60.2519L200.982 60.2645L200.99 60.277L202.66 59.1758ZM189.785 48.4469L190.569 46.6068L190.557 46.6016L190.544 46.5965L189.785 48.4469ZM137.98 45.9945V43.9945H135.98V45.9945H137.98ZM137.98 104.697H135.98V106.697H137.98V104.697ZM192.465 45.6611C198.251 48.3615 202.753 52.3418 206.017 57.6219L209.419 55.5186C205.735 49.5588 200.631 45.058 194.156 42.0364L192.465 45.6611ZM206.03 57.644C209.397 62.9337 211.082 68.7924 211.082 75.2692H215.082C215.082 68.0539 213.191 61.4466 209.405 55.4965L206.03 57.644ZM211.082 75.2692C211.082 82.7936 208.779 89.5161 204.144 95.5028L207.307 97.9515C212.481 91.2678 215.082 83.6851 215.082 75.2692H211.082ZM204.141 95.5065C199.604 101.395 193.795 105.282 186.658 107.211L187.701 111.073C195.687 108.914 202.241 104.526 207.31 97.9478L204.141 95.5065ZM185.554 110.307L212.683 148.165L215.934 145.835L188.805 107.977L185.554 110.307ZM214.308 145H207.564V149H214.308V145ZM209.193 145.839L182.984 109.054L179.726 111.376L205.936 148.16L209.193 145.839ZM181.293 108.216L176.388 108.369L176.513 112.367L181.418 112.214L181.293 108.216ZM176.451 108.368H137.98V112.368H176.451V108.368ZM135.98 110.368V147H139.98V110.368H135.98ZM137.98 145H132.309V149H137.98V145ZM134.309 147V40.3235H130.309V147H134.309ZM132.309 42.3235H172.925V38.3235H132.309V42.3235ZM172.925 42.3235C177.339 42.3235 181.036 42.6252 184.041 43.2067L184.801 39.2796C181.47 38.6349 177.503 38.3235 172.925 38.3235V42.3235ZM184.112 43.2192C187.222 43.7051 190.004 44.5255 192.472 45.6647L194.148 42.0328C191.303 40.7196 188.159 39.8029 184.729 39.2671L184.112 43.2192ZM177.983 106.697C183.648 106.697 188.905 105.276 193.715 102.434L191.68 98.9903C187.498 101.462 182.945 102.697 177.983 102.697V106.697ZM193.715 102.434C198.501 99.6057 202.32 95.7871 205.148 91.0007L201.704 88.9658C199.219 93.1713 195.885 96.5053 191.68 98.9903L193.715 102.434ZM205.148 91.0007C207.99 86.191 209.411 80.934 209.411 75.2692H205.411C205.411 80.2313 204.176 84.7836 201.704 88.9658L205.148 91.0007ZM209.411 75.2692C209.411 68.9638 207.719 63.2142 204.329 58.0746L200.99 60.277C203.936 64.7424 205.411 69.7218 205.411 75.2692H209.411ZM204.346 58.0997C201.052 52.9391 196.437 49.1061 190.569 46.6068L189.001 50.2869C194.169 52.4879 198.137 55.8076 200.974 60.2519L204.346 58.0997ZM190.544 46.5965C186.208 44.8176 180.287 43.9945 172.925 43.9945V47.9945C180.074 47.9945 185.392 48.8063 189.026 50.2972L190.544 46.5965ZM172.925 43.9945H137.98V47.9945H172.925V43.9945ZM135.98 45.9945V104.697H139.98V45.9945H135.98ZM137.98 106.697H177.983V102.697H137.98V106.697ZM305.694 44.002L304.676 45.7239L304.686 45.7296L304.696 45.7353L305.694 44.002ZM321.634 59.9422L319.901 60.9401L319.906 60.9499L319.912 60.9596L321.634 59.9422ZM321.634 127.381L319.912 126.364L319.906 126.374L319.901 126.383L321.634 127.381ZM305.694 143.475L306.692 145.208L306.701 145.202L306.711 145.197L305.694 143.475ZM261.552 143.475L260.534 145.197L260.544 145.202L260.554 145.208L261.552 143.475ZM245.458 127.381L243.725 128.379L243.731 128.389L243.736 128.399L245.458 127.381ZM245.458 59.9422L243.736 58.9247L243.731 58.9344L243.725 58.9442L245.458 59.9422ZM261.552 44.002L262.55 45.7353L262.559 45.7296L262.569 45.7239L261.552 44.002ZM250.363 124.622L248.625 125.611L248.635 125.629L248.645 125.647L250.363 124.622ZM264.311 138.57L263.286 140.288L263.304 140.298L263.322 140.308L264.311 138.57ZM302.782 138.57L303.784 140.301L303.793 140.295L302.782 138.57ZM316.729 124.622L315.004 123.611L314.998 123.62L316.729 124.622ZM316.729 62.8543L314.991 63.8434L315.001 63.8612L315.012 63.8789L316.729 62.8543ZM302.782 48.9067L301.757 50.6243L301.775 50.6348L301.792 50.645L302.782 48.9067ZM264.311 48.9067L265.313 50.6375L265.322 50.6321L264.311 48.9067ZM250.363 62.8543L248.638 61.8429L248.632 61.8522L250.363 62.8543ZM283.623 40.0245C291.241 40.0245 298.246 41.9242 304.676 45.7239L306.711 42.2802C299.653 38.1097 291.944 36.0245 283.623 36.0245V40.0245ZM304.696 45.7353C311.134 49.4421 316.194 54.5018 319.901 60.9401L323.367 58.9442C319.308 51.8947 313.741 46.3276 306.692 42.2688L304.696 45.7353ZM319.912 60.9596C323.712 67.3898 325.611 74.3944 325.611 82.0131H329.611C329.611 73.6917 327.526 65.9824 323.356 58.9247L319.912 60.9596ZM325.611 82.0131V105.31H329.611V82.0131H325.611ZM325.611 105.31C325.611 112.929 323.712 119.934 319.912 126.364L323.356 128.399C327.526 121.341 329.611 113.632 329.611 105.31H325.611ZM319.901 126.383C316.191 132.826 311.125 137.942 304.676 141.753L306.711 145.197C313.75 141.037 319.311 135.424 323.367 128.379L319.901 126.383ZM304.696 141.741C298.263 145.445 291.251 147.299 283.623 147.299V151.299C291.934 151.299 299.637 149.27 306.692 145.208L304.696 141.741ZM283.623 147.299C275.994 147.299 268.982 145.445 262.55 141.741L260.554 145.208C267.609 149.27 275.311 151.299 283.623 151.299V147.299ZM262.569 141.753C256.116 137.939 250.994 132.817 247.18 126.364L243.736 128.399C247.893 135.433 253.5 141.04 260.534 145.197L262.569 141.753ZM247.192 126.383C243.488 119.951 241.634 112.939 241.634 105.31H237.634C237.634 113.622 239.663 121.324 243.725 128.379L247.192 126.383ZM241.634 105.31V82.0131H237.634V105.31H241.634ZM241.634 82.0131C241.634 74.3845 243.488 67.3729 247.192 60.9401L243.725 58.9442C239.663 65.9993 237.634 73.7017 237.634 82.0131H241.634ZM247.18 60.9596C250.991 54.5107 256.107 49.4448 262.55 45.7353L260.554 42.2688C253.509 46.325 247.896 51.8858 243.736 58.9247L247.18 60.9596ZM262.569 45.7239C268.999 41.9242 276.004 40.0245 283.623 40.0245V36.0245C275.301 36.0245 267.592 38.1097 260.534 42.2802L262.569 45.7239ZM243.305 105.31C243.305 112.598 245.078 119.378 248.625 125.611L252.101 123.633C248.904 118.014 247.305 111.919 247.305 105.31H243.305ZM248.645 125.647C252.289 131.756 257.177 136.644 263.286 140.288L265.335 136.852C259.796 133.548 255.385 129.137 252.081 123.598L248.645 125.647ZM263.322 140.308C269.555 143.855 276.335 145.628 283.623 145.628V141.628C277.014 141.628 270.919 140.029 265.3 136.832L263.322 140.308ZM283.623 145.628C290.911 145.628 297.645 143.855 303.784 140.301L301.779 136.839C296.27 140.029 290.231 141.628 283.623 141.628V145.628ZM303.793 140.295C310.011 136.65 314.911 131.754 318.46 125.624L314.998 123.62C311.803 129.139 307.405 133.542 301.77 136.845L303.793 140.295ZM318.455 125.634C322.111 119.397 323.94 112.61 323.94 105.31H319.94C319.94 111.907 318.296 117.995 315.004 123.611L318.455 125.634ZM323.94 105.31V82.0131H319.94V105.31H323.94ZM323.94 82.0131C323.94 74.7134 322.11 67.9717 318.447 61.8298L315.012 63.8789C318.296 69.3855 319.94 75.4163 319.94 82.0131H323.94ZM318.467 61.8653C314.918 55.6262 310.01 50.7181 303.771 47.1683L301.792 50.645C307.406 53.8391 311.797 58.2295 314.991 63.8434L318.467 61.8653ZM303.806 47.189C297.664 43.5254 290.922 41.6955 283.623 41.6955V45.6955C290.22 45.6955 296.25 47.3397 301.757 50.6243L303.806 47.189ZM283.623 41.6955C276.323 41.6955 269.536 43.5252 263.299 47.1813L265.322 50.6321C270.938 47.3399 277.026 45.6955 283.623 45.6955V41.6955ZM263.308 47.1758C257.179 50.7247 252.283 55.6246 248.638 61.8429L252.088 63.8657C255.391 58.2311 259.794 53.8325 265.313 50.6375L263.308 47.1758ZM248.632 61.8522C245.078 67.9912 243.305 74.7249 243.305 82.0131H247.305C247.305 75.4048 248.904 69.366 252.094 63.8564L248.632 61.8522ZM243.305 82.0131V105.31H247.305V82.0131H243.305ZM375.008 144.394L374.056 146.153L374.068 146.159L374.079 146.165L375.008 144.394ZM359.681 130.6L361.332 129.471L359.681 130.6ZM352.63 111.288V109.288H350.417L350.641 111.49L352.63 111.288ZM358.301 111.288L360.288 111.052L360.078 109.288H358.301V111.288ZM364.586 127.841L362.942 128.981L362.948 128.989L362.954 128.997L364.586 127.841ZM377.767 139.49L376.819 141.251L376.839 141.261L376.859 141.272L377.767 139.49ZM414.092 138.57L415.107 140.293L415.107 140.293L414.092 138.57ZM427.733 124.622L429.471 125.611L429.471 125.611L427.733 124.622ZM432.791 45.9945H434.791V43.9945H432.791V45.9945ZM384.971 45.9945H382.971V47.9945H384.971V45.9945ZM384.971 40.3235V38.3235H382.971V40.3235H384.971ZM438.309 40.3235H440.309V38.3235H438.309V40.3235ZM432.484 127.535L430.745 126.548L430.74 126.557L432.484 127.535ZM416.851 143.475L415.841 141.748L415.83 141.755L416.851 143.475ZM395.24 147.299C388.298 147.299 381.874 145.738 375.937 142.623L374.079 146.165C380.607 149.59 387.672 151.299 395.24 151.299V147.299ZM375.96 142.635C370.005 139.414 365.136 135.031 361.332 129.471L358.03 131.729C362.196 137.817 367.545 142.631 374.056 146.153L375.96 142.635ZM361.332 129.471C357.536 123.923 355.302 117.805 354.62 111.086L350.641 111.49C351.39 118.871 353.856 125.628 358.03 131.729L361.332 129.471ZM352.63 113.288H358.301V109.288H352.63V113.288ZM356.315 111.523C357.069 117.878 359.282 123.707 362.942 128.981L366.229 126.701C362.94 121.962 360.964 116.755 360.288 111.052L356.315 111.523ZM362.954 128.997C366.607 134.155 371.235 138.244 376.819 141.251L378.715 137.729C373.672 135.013 369.513 131.337 366.218 126.685L362.954 128.997ZM376.859 141.272C382.563 144.178 388.699 145.628 395.24 145.628V141.628C389.314 141.628 383.802 140.319 378.675 137.708L376.859 141.272ZM395.24 145.628C402.431 145.628 409.068 143.852 415.107 140.293L413.077 136.847C407.672 140.032 401.74 141.628 395.24 141.628V145.628ZM415.107 140.293C421.139 136.739 425.932 131.833 429.471 125.611L425.995 123.633C422.791 129.265 418.489 133.657 413.077 136.847L415.107 140.293ZM429.471 125.611C433.028 119.36 434.791 112.373 434.791 104.697H430.791C430.791 111.736 429.182 118.032 425.995 123.633L429.471 125.611ZM434.791 104.697V45.9945H430.791V104.697H434.791ZM432.791 43.9945H384.971V47.9945H432.791V43.9945ZM386.971 45.9945V40.3235H382.971V45.9945H386.971ZM384.971 42.3235H438.309V38.3235H384.971V42.3235ZM436.309 40.3235V104.697H440.309V40.3235H436.309ZM436.309 104.697C436.309 112.753 434.446 120.022 430.745 126.548L434.224 128.521C438.289 121.355 440.309 113.399 440.309 104.697H436.309ZM430.74 126.557C427.132 132.992 422.174 138.046 415.841 141.748L417.86 145.201C424.811 141.138 430.275 135.565 434.229 128.513L430.74 126.557ZM415.83 141.755C409.61 145.448 402.761 147.299 395.24 147.299V151.299C403.454 151.299 411.012 149.267 417.872 145.194L415.83 141.755ZM545.174 40.3235H547.174V38.3235H545.174V40.3235ZM545.174 45.9945V47.9945H547.174V45.9945H545.174ZM513.294 45.9945V43.9945H511.294V45.9945H513.294ZM513.294 141.329H511.294V143.329H513.294V141.329ZM545.174 141.329H547.174V139.329H545.174V141.329ZM545.174 147V149H547.174V147H545.174ZM476.049 147H474.049V149H476.049V147ZM476.049 141.329V139.329H474.049V141.329H476.049ZM507.776 141.329V143.329H509.776V141.329H507.776ZM507.776 45.9945H509.776V43.9945H507.776V45.9945ZM476.049 45.9945H474.049V47.9945H476.049V45.9945ZM476.049 40.3235V38.3235H474.049V40.3235H476.049ZM543.174 40.3235V45.9945H547.174V40.3235H543.174ZM545.174 43.9945H513.294V47.9945H545.174V43.9945ZM511.294 45.9945V141.329H515.294V45.9945H511.294ZM513.294 143.329H545.174V139.329H513.294V143.329ZM543.174 141.329V147H547.174V141.329H543.174ZM545.174 145H476.049V149H545.174V145ZM478.049 147V141.329H474.049V147H478.049ZM476.049 143.329H507.776V139.329H476.049V143.329ZM509.776 141.329V45.9945H505.776V141.329H509.776ZM507.776 43.9945H476.049V47.9945H507.776V43.9945ZM478.049 45.9945V40.3235H474.049V45.9945H478.049ZM476.049 42.3235H545.174V38.3235H476.049V42.3235ZM588.586 40.3235V38.3235H586.586V40.3235H588.586ZM668.133 40.3235H670.133V38.3235H668.133V40.3235ZM668.133 45.9945V47.9945H670.133V45.9945H668.133ZM594.257 45.9945V43.9945H592.257V45.9945H594.257ZM594.257 90.7496H592.257V92.7496H594.257V90.7496ZM654.032 90.7496H656.032V88.7496H654.032V90.7496ZM654.032 96.4206V98.4206H656.032V96.4206H654.032ZM594.257 96.4206V94.4206H592.257V96.4206H594.257ZM594.257 147V149H596.257V147H594.257ZM588.586 147H586.586V149H588.586V147ZM588.586 42.3235H668.133V38.3235H588.586V42.3235ZM666.133 40.3235V45.9945H670.133V40.3235H666.133ZM668.133 43.9945H594.257V47.9945H668.133V43.9945ZM592.257 45.9945V90.7496H596.257V45.9945H592.257ZM594.257 92.7496H654.032V88.7496H594.257V92.7496ZM652.032 90.7496V96.4206H656.032V90.7496H652.032ZM654.032 94.4206H594.257V98.4206H654.032V94.4206ZM592.257 96.4206V147H596.257V96.4206H592.257ZM594.257 145H588.586V149H594.257V145ZM590.586 147V40.3235H586.586V147H590.586ZM699.743 40.3235L701.409 39.2172L700.816 38.3235H699.743V40.3235ZM737.601 97.3402L735.935 98.4465L737.608 100.966L739.271 98.4403L737.601 97.3402ZM775.152 40.3235V38.3235H774.075L773.482 39.2235L775.152 40.3235ZM781.896 40.3235L783.566 41.4245L785.611 38.3235H781.896V40.3235ZM740.36 103.318L738.69 102.217L738.36 102.718V103.318H740.36ZM740.36 147V149H742.36V147H740.36ZM734.689 147H732.689V149H734.689V147ZM734.689 103.318H736.689V102.716L736.357 102.214L734.689 103.318ZM692.999 40.3235V38.3235H689.277L691.331 41.4273L692.999 40.3235ZM698.077 41.4298L735.935 98.4465L739.267 96.2339L701.409 39.2172L698.077 41.4298ZM739.271 98.4403L776.823 41.4236L773.482 39.2235L735.931 96.2402L739.271 98.4403ZM775.152 42.3235H781.896V38.3235H775.152V42.3235ZM780.227 39.2226L738.69 102.217L742.03 104.419L783.566 41.4245L780.227 39.2226ZM738.36 103.318V147H742.36V103.318H738.36ZM740.36 145H734.689V149H740.36V145ZM736.689 147V103.318H732.689V147H736.689ZM736.357 102.214L694.667 39.2197L691.331 41.4273L733.021 104.422L736.357 102.214ZM692.999 42.3235H699.743V38.3235H692.999V42.3235Z" fill="#171f39"/>
<path d="M901.195 98.1622L861.146 74.2435L821.195 98.3247L821.292 146.325L861.341 170.243L901.292 146.162L901.195 98.1622Z" fill="#f58e4b" stroke="#171f39" stroke-width="4" stroke-linecap="round" stroke-linejoin="round"/>
<path d="M981.195 97.9998L941.146 74.0811L901.195 98.1622L901.292 146.162L941.341 170.081L981.292 146L981.195 97.9998Z" fill="#f58e4b" stroke="#171f39" stroke-width="4" stroke-linecap="round" stroke-linejoin="round"/>
<path d="M941.049 26.0812L901 2.16243L861.049 26.2436L861.146 74.2435L901.195 98.1622L941.146 74.0811L941.049 26.0812Z" fill="#f58e4b" stroke="#171f39" stroke-width="4" stroke-linecap="round" stroke-linejoin="round"/>
</svg>
